<?xml version="1.0" standalone="no"?>
<!DOCTYPE svg PUBLIC "-//W3C//DTD SVG 20010904//EN"
 "http://www.w3.org/TR/2001/REC-SVG-20010904/DTD/svg10.dtd">
<svg version="1.0" xmlns="http://www.w3.org/2000/svg"
 width="1123.000000pt" height="1123.000000pt" viewBox="0 0 1123.000000 1123.000000"
 preserveAspectRatio="xMidYMid meet">
<metadata>
Created by potrace 1.14, written by Peter Selinger 2001-2017
</metadata>
<g transform="translate(0.000000,1123.000000) scale(0.100000,-0.100000)"
fill="#000000" stroke="none">
<path d="M4805 10020 c-30 -12 -64 -46 -260 -264 -5 -6 -44 -49 -85 -96 -99
-112 -140 -157 -170 -189 -14 -14 -61 -67 -105 -116 -43 -50 -86 -97 -95 -106
-8 -9 -44 -49 -80 -90 -36 -40 -72 -80 -80 -89 -8 -9 -49 -54 -90 -100 -41
-47 -96 -107 -121 -135 -25 -27 -64 -70 -85 -94 -21 -25 -48 -54 -59 -66 -11
-11 -54 -58 -95 -105 -97 -109 -353 -393 -360 -400 -3 -3 -23 -25 -44 -50 -34
-39 -170 -191 -201 -224 -6 -6 -93 -103 -194 -216 -102 -113 -219 -243 -261
-290 -211 -232 -211 -232 88 -232 339 0 294 -8 371 70 36 37 80 84 96 103 17
20 60 69 96 110 37 41 144 162 239 269 95 107 201 227 235 265 34 39 104 117
155 175 140 158 213 240 235 264 11 13 52 58 90 102 88 99 159 178 165 184 3
3 37 41 75 85 63 72 93 105 160 180 11 13 47 53 80 91 124 140 560 632 625
704 163 182 201 230 198 247 -3 17 -22 18 -253 19 -138 1 -259 -2 -270 -6z"/>
<path d="M5834 10014 c-23 -12 -81 -71 -189 -192 l-38 -42 -48 45 c-26 25 -57
45 -67 45 -19 0 -53 -34 -177 -174 -107 -122 -108 -126 -44 -196 21 -23 39
-45 39 -49 0 -3 -19 -26 -43 -51 -47 -52 -176 -194 -204 -226 -10 -12 -54 -61
-99 -110 -44 -49 -105 -116 -134 -149 -29 -33 -56 -62 -59 -65 -3 -3 -39 -43
-80 -90 -41 -47 -79 -90 -85 -95 -6 -6 -47 -51 -91 -100 -44 -50 -84 -95 -90
-101 -5 -6 -44 -49 -85 -95 -41 -46 -96 -106 -121 -134 -25 -27 -61 -67 -80
-89 -19 -21 -47 -52 -62 -69 -29 -31 -130 -145 -164 -183 -15 -17 -142 -158
-178 -198 -19 -21 -200 -221 -230 -255 -16 -19 -35 -39 -40 -45 -162 -179
-178 -203 -150 -226 23 -19 491 -16 538 4 18 7 64 49 102 92 39 43 72 81 75
84 5 5 225 253 265 298 11 13 33 38 48 55 16 18 52 58 80 91 29 32 61 68 72
80 11 12 47 53 80 90 33 38 69 78 80 90 11 12 47 53 80 91 33 37 71 80 85 95
14 15 50 55 80 90 30 35 60 68 65 74 15 16 559 629 630 710 33 38 69 78 80 90
11 12 51 57 90 101 38 44 86 98 106 120 34 37 243 273 314 355 38 43 101 114
143 160 37 41 49 70 32 80 -6 4 -122 7 -256 7 -184 0 -251 -3 -270 -13z"/>
<path d="M6451 9802 c-158 -177 -181 -205 -181 -227 0 -19 78 -114 254 -305
22 -25 77 -86 121 -135 44 -50 98 -110 120 -134 22 -24 45 -49 50 -55 6 -7 25
-29 44 -49 l34 -36 -28 -33 c-15 -18 -46 -53 -69 -78 -22 -25 -79 -88 -126
-140 -47 -52 -102 -113 -122 -135 -20 -22 -45 -49 -55 -61 -41 -47 -149 -169
-168 -188 -11 -12 -54 -60 -95 -106 -41 -47 -79 -90 -85 -96 -5 -6 -41 -46
-80 -89 -38 -43 -81 -90 -95 -104 -14 -14 -43 -46 -64 -71 -22 -25 -76 -85
-120 -134 -45 -49 -89 -98 -99 -110 -32 -37 -87 -98 -166 -185 -96 -105 -109
-126 -95 -149 10 -15 36 -17 265 -20 172 -1 263 1 281 9 15 6 49 36 75 67 27
31 55 64 63 73 8 8 29 31 45 50 89 102 180 205 189 214 6 6 60 66 121 135 60
69 124 141 141 160 18 19 145 163 284 320 139 157 263 296 276 310 l24 25 28
-30 c15 -17 61 -68 102 -115 41 -46 80 -89 85 -95 6 -7 44 -49 85 -95 41 -46
82 -91 90 -100 8 -8 67 -74 130 -145 142 -160 121 -137 211 -236 111 -123 295
-328 337 -377 55 -63 105 -113 138 -138 l37 -29 243 -3 c273 -4 290 -1 280 51
-3 16 -27 53 -54 81 -26 28 -85 94 -132 145 -47 52 -94 105 -105 117 -11 12
-49 55 -85 95 -36 40 -70 77 -75 83 -6 6 -73 81 -150 166 -76 85 -144 160
-150 166 -5 6 -39 44 -75 84 -36 40 -78 87 -93 103 -16 17 -56 62 -90 101 -34
38 -73 81 -87 96 -14 14 -40 44 -59 66 -19 21 -57 64 -85 95 -28 30 -85 93
-126 139 -41 45 -86 95 -100 110 -38 42 -80 88 -270 300 -228 254 -241 268
-270 299 -14 14 -43 47 -65 72 -76 86 -190 212 -250 276 -85 92 -97 91 -184
-5z"/>
<path d="M5976 9268 c-61 -58 -236 -260 -236 -272 0 -16 26 -54 67 -97 32 -34
33 -36 16 -55 -10 -10 -52 -57 -93 -104 -41 -47 -84 -94 -95 -106 -22 -23 -49
-53 -170 -189 -44 -49 -84 -95 -90 -101 -5 -6 -44 -48 -85 -94 -41 -46 -82
-91 -90 -100 -8 -8 -53 -58 -100 -110 -46 -52 -101 -113 -121 -135 -255 -279
-608 -680 -612 -696 -12 -45 8 -49 274 -49 171 0 257 4 272 12 23 12 58 47
147 147 76 86 85 97 165 186 39 43 78 87 88 99 10 12 30 35 45 51 15 17 77 86
137 155 61 68 119 134 130 146 11 11 45 49 75 84 87 98 92 105 268 302 l166
187 56 -59 c30 -33 60 -60 66 -60 11 0 33 22 154 159 36 40 80 89 98 108 37
39 39 52 15 80 -42 48 -150 168 -168 188 -11 11 -38 41 -60 66 -34 38 -99 111
-212 235 -15 17 -38 36 -50 43 -20 10 -27 7 -57 -21z"/>
<path d="M7008 8080 c-84 -85 -192 -209 -207 -237 -14 -28 -14 -48 2 -65 13
-13 132 -147 257 -288 36 -40 86 -96 111 -124 25 -28 68 -77 95 -108 83 -96
91 -98 371 -98 133 0 248 3 257 6 29 11 17 52 -31 106 -25 29 -49 55 -52 58
-3 3 -42 45 -86 95 -135 151 -149 167 -165 184 -9 9 -54 59 -100 111 -47 52
-94 104 -105 116 -11 12 -56 61 -100 110 -44 49 -103 114 -132 144 l-51 55
-64 -65z"/>
<path d="M2293 7050 c-48 -19 -22 -84 67 -170 3 -3 68 -75 145 -160 77 -85
156 -173 176 -195 20 -22 186 -206 369 -410 183 -203 367 -408 409 -454 42
-46 81 -89 86 -95 93 -104 191 -212 195 -216 3 -3 41 -45 85 -95 44 -49 85
-94 91 -100 6 -5 66 -73 135 -150 68 -76 131 -146 139 -155 27 -29 175 -192
314 -347 75 -84 145 -157 156 -163 26 -14 61 1 95 42 15 18 60 69 99 112 98
109 116 135 108 156 -4 10 -56 73 -117 141 -60 67 -114 127 -120 133 -5 6 -30
34 -55 61 -25 28 -76 86 -115 129 -38 44 -94 105 -122 136 -29 32 -62 69 -73
82 l-20 26 192 213 c105 118 226 252 268 299 43 47 124 137 180 200 84 93 190
211 265 294 6 6 68 76 140 156 71 80 132 147 135 150 3 3 43 48 90 100 47 52
102 113 122 135 85 93 97 124 56 142 -13 5 -127 9 -268 8 -277 -2 -282 -3
-341 -78 -19 -24 -65 -79 -104 -122 -91 -101 -79 -88 -165 -185 -65 -74 -121
-136 -155 -174 -6 -6 -59 -67 -120 -136 -60 -69 -116 -132 -124 -141 -9 -9
-43 -47 -76 -84 -132 -151 -239 -271 -254 -286 -9 -9 -27 -29 -40 -45 -13 -16
-41 -48 -62 -71 l-38 -41 -84 91 c-78 86 -172 191 -342 381 -38 44 -75 84 -80
90 -6 6 -87 97 -180 201 -94 105 -184 206 -202 225 -17 19 -40 44 -50 56 -196
226 -270 298 -322 311 -53 14 -457 16 -488 3z"/>
<path d="M3335 7047 c-8 -4 -15 -19 -15 -32 0 -25 8 -34 180 -225 42 -47 92
-103 111 -124 19 -22 45 -51 59 -65 14 -15 61 -67 105 -116 44 -49 101 -112
126 -139 25 -28 90 -99 143 -158 55 -61 105 -108 116 -108 10 0 51 37 91 82
41 45 100 111 132 146 35 39 57 73 57 87 0 20 -32 68 -66 100 -6 6 -80 89
-165 185 -84 96 -158 180 -164 186 -5 6 -39 43 -74 83 -96 107 -84 104 -374
106 -136 0 -254 -3 -262 -8z"/>
<path d="M6330 7046 c-40 -14 -50 -24 -340 -351 -207 -233 -334 -376 -355
-399 -5 -6 -44 -49 -85 -96 -41 -47 -79 -90 -85 -96 -30 -33 -143 -160 -158
-178 -67 -77 -138 -157 -171 -194 l-40 -43 -54 55 c-58 60 -82 68 -105 35 -8
-11 -37 -43 -63 -72 -118 -125 -184 -206 -184 -223 0 -11 24 -44 53 -75 29
-30 86 -93 127 -139 41 -46 80 -88 85 -94 6 -6 50 -56 100 -111 150 -167 159
-172 211 -111 16 18 67 75 114 126 47 51 91 101 98 112 20 27 8 56 -43 113
l-45 49 42 45 c24 25 45 48 48 51 4 4 136 150 195 216 6 6 42 46 80 89 39 44
79 89 91 102 12 12 52 57 90 100 38 42 90 100 115 127 25 28 131 146 234 261
104 116 222 247 263 292 41 46 82 91 91 101 9 11 48 55 87 98 146 162 151 170
129 201 -12 17 -33 18 -252 20 -164 1 -249 -3 -273 -11z"/>
<path d="M7392 7048 c-35 -9 -78 -50 -182 -168 -80 -92 -303 -343 -310 -350
-3 -3 -57 -63 -119 -135 -63 -71 -119 -135 -125 -140 -6 -6 -40 -44 -76 -85
-35 -41 -67 -77 -70 -80 -3 -3 -57 -63 -120 -135 -63 -71 -117 -132 -120 -135
-3 -3 -37 -41 -75 -85 -39 -44 -72 -82 -75 -85 -3 -3 -39 -43 -80 -90 -41 -47
-77 -87 -80 -90 -3 -3 -57 -63 -120 -135 -63 -71 -121 -137 -130 -146 -8 -9
-28 -31 -44 -50 -34 -39 -326 -369 -341 -385 -5 -6 -37 -41 -70 -79 -33 -37
-64 -73 -70 -79 -5 -6 -44 -49 -85 -96 -41 -47 -77 -87 -80 -90 -50 -48 -160
-185 -160 -199 0 -13 9 -21 28 -26 30 -6 451 -4 487 2 27 6 61 37 164 151 l84
92 48 -45 c26 -25 52 -45 58 -45 25 0 46 19 138 123 118 134 143 166 143 182
0 7 -21 36 -46 64 l-47 52 29 31 c16 18 34 37 39 43 23 26 161 180 175 195 8
9 51 56 95 106 44 49 98 109 121 134 23 25 105 117 184 205 79 88 161 180 184
205 23 25 79 88 126 140 47 52 90 100 95 106 30 32 162 179 175 194 12 14 127
142 175 194 6 6 46 52 90 101 44 50 85 95 90 101 6 6 44 49 85 95 151 168 266
295 302 334 40 43 55 82 38 99 -14 14 -480 18 -528 4z"/>
<path d="M8411 7042 c-17 -8 -43 -29 -57 -46 -15 -17 -45 -51 -68 -76 -23 -25
-93 -103 -156 -175 -63 -71 -117 -132 -120 -135 -3 -3 -55 -61 -115 -130 -60
-69 -112 -127 -115 -130 -3 -3 -39 -43 -80 -90 -41 -47 -91 -103 -111 -125
-20 -22 -78 -87 -129 -145 -51 -58 -107 -121 -124 -140 -17 -19 -83 -94 -146
-165 -98 -111 -140 -158 -195 -219 -6 -6 -61 -69 -124 -141 -63 -71 -124 -139
-135 -151 -12 -12 -34 -36 -50 -55 -40 -46 -160 -183 -166 -189 -3 -3 -23 -25
-45 -50 -22 -26 -72 -82 -111 -125 -39 -44 -109 -123 -155 -175 -46 -52 -100
-113 -119 -134 -124 -137 -187 -212 -193 -228 -4 -11 0 -21 11 -27 22 -12 456
-12 503 0 36 9 76 46 209 194 35 39 77 86 95 105 17 19 78 87 135 150 56 63
119 133 139 155 20 22 74 83 121 135 47 52 103 115 126 140 23 25 124 137 225
250 101 113 199 223 219 244 19 21 40 44 45 50 94 105 181 202 185 206 3 3 61
68 130 145 69 77 144 160 167 185 23 25 51 56 62 69 37 42 155 175 206 231 67
73 61 67 135 149 83 93 103 116 154 171 203 221 220 250 167 277 -39 19 -479
15 -520 -5z"/>
<path d="M2990 3718 c-412 -33 -702 -217 -792 -503 -29 -92 -32 -277 -5 -374
67 -246 247 -394 576 -476 96 -23 193 -40 411 -70 126 -18 267 -60 329 -99 98
-62 140 -132 142 -238 4 -180 -143 -306 -399 -343 -121 -17 -305 -4 -417 30
-152 47 -297 158 -359 275 -16 30 -30 57 -32 58 -3 5 -356 -176 -369 -189 -6
-6 1 -30 19 -67 118 -241 319 -404 585 -472 150 -39 245 -49 446 -46 149 2
212 7 293 25 364 77 586 257 663 536 27 100 30 275 5 380 -78 330 -346 498
-906 570 -440 56 -575 135 -557 325 12 133 103 218 287 266 89 24 291 23 380
0 140 -38 268 -111 340 -194 l44 -50 155 80 c86 44 166 87 179 95 l23 14 -27
47 c-142 246 -405 391 -759 418 -139 10 -158 10 -255 2z"/>
<path d="M5318 3725 c-1 -1 -37 -5 -78 -9 -126 -10 -169 -17 -275 -48 -38 -11
-71 -20 -72 -19 -12 4 -210 -108 -251 -142 -108 -89 -184 -212 -212 -342 -29
-136 -9 -317 50 -439 87 -179 302 -316 583 -372 10 -2 26 -5 35 -8 9 -3 35 -8
57 -11 23 -3 50 -7 60 -9 22 -4 95 -14 165 -22 328 -37 507 -152 516 -329 3
-75 -10 -125 -48 -181 -83 -124 -252 -188 -498 -188 -288 1 -521 115 -630 309
-18 33 -34 62 -36 63 -1 2 -31 -12 -66 -31 -35 -19 -118 -62 -185 -97 -68 -34
-123 -64 -123 -66 0 -13 68 -137 103 -189 72 -106 195 -213 314 -273 41 -22
179 -71 218 -78 11 -2 43 -8 70 -14 117 -23 177 -27 349 -25 99 2 191 5 202 8
12 3 39 8 60 11 359 54 629 266 699 550 18 75 24 216 12 311 -32 267 -212 454
-527 549 -94 28 -255 64 -322 71 -314 32 -485 82 -566 163 -115 115 -62 311
105 395 78 40 168 59 290 62 225 6 420 -66 549 -203 l52 -55 176 89 c132 67
175 93 171 104 -16 42 -76 127 -130 184 -128 134 -304 218 -550 261 -16 3 -77
8 -135 11 -58 3 -110 7 -117 9 -6 2 -13 2 -15 0z"/>
<path d="M10155 3680 c-356 -41 -624 -180 -823 -426 -102 -126 -207 -345 -237
-493 -33 -161 -45 -347 -30 -466 30 -236 77 -377 187 -565 46 -79 151 -195
244 -270 120 -97 321 -188 474 -216 14 -2 36 -7 48 -10 13 -2 43 -7 65 -10 23
-3 56 -7 72 -9 66 -10 276 -5 376 9 175 25 376 99 506 187 63 42 183 139 183
148 0 4 -68 75 -151 159 -132 133 -153 151 -168 140 -9 -7 -36 -29 -61 -49
-99 -79 -245 -142 -385 -166 -52 -9 -224 -9 -298 0 -77 9 -220 57 -288 97
-185 109 -310 299 -355 540 -12 69 -11 241 3 322 48 275 219 496 462 594 125
50 317 72 471 52 129 -17 297 -90 395 -174 l50 -42 36 36 c20 21 87 86 149
147 l113 109 -59 54 c-118 107 -301 210 -454 255 -77 23 -107 30 -190 44 -46
8 -274 10 -335 3z"/>
<path d="M13 3636 c-4 -6 -7 -2111 -4 -2335 l1 -39 888 0 888 0 2 218 c2 167
-1 219 -10 222 -7 2 -307 4 -665 4 -427 -1 -654 2 -656 9 -2 5 -3 125 -3 265
l1 255 643 3 642 2 0 210 0 210 -640 0 c-352 0 -641 3 -641 8 -1 4 -2 127 -3
273 l-1 266 640 1 c352 0 652 1 667 1 l27 1 -1 215 c0 154 -3 215 -12 215
-148 6 -1759 2 -1763 -4z"/>
<path d="M7510 3635 c-4 -5 -76 -163 -160 -350 -173 -389 -262 -586 -297 -665
-14 -30 -72 -158 -128 -285 -96 -213 -130 -289 -183 -405 -11 -25 -47 -106
-80 -180 -33 -74 -69 -155 -80 -180 -11 -25 -35 -76 -52 -115 -18 -38 -39 -88
-47 -110 -9 -22 -20 -44 -25 -49 -28 -33 -10 -35 233 -33 l242 2 16 31 c9 18
54 118 101 223 l85 191 621 0 621 0 99 -222 99 -223 243 -1 c150 -1 242 2 242
8 0 6 -6 24 -14 41 -8 18 -35 79 -61 137 -26 58 -93 209 -150 335 -57 127
-116 259 -133 295 -16 36 -54 121 -85 190 -44 99 -284 637 -474 1060 -16 36
-54 120 -84 187 l-54 122 -60 1 c-310 5 -428 4 -435 -5z m385 -815 c70 -162
138 -317 150 -345 56 -126 145 -334 145 -339 0 -3 -196 -6 -436 -6 -345 0
-435 3 -431 13 7 17 285 652 307 702 10 22 41 95 71 163 29 67 56 119 60 115
4 -5 64 -141 134 -303z"/>
</g>
</svg>
